<?xml version="1.0" encoding="UTF-8" standalone="no"?>
<!-- Created with Inkscape (http://www.inkscape.org/) -->

<svg
   width="210mm"
   height="297mm"
   viewBox="0 0 210 297"
   version="1.1"
   id="svg5"
   xml:space="preserve"
   inkscape:export-filename="BG_P.png"
   inkscape:export-xdpi="300"
   inkscape:export-ydpi="300"
   inkscape:version="1.2.2 (732a01da63, 2022-12-09)"
   sodipodi:docname="BG_P.svg"
   xmlns:inkscape="http://www.inkscape.org/namespaces/inkscape"
   xmlns:sodipodi="http://sodipodi.sourceforge.net/DTD/sodipodi-0.dtd"
   xmlns="http://www.w3.org/2000/svg"
   xmlns:svg="http://www.w3.org/2000/svg"><sodipodi:namedview
     id="namedview7"
     pagecolor="#505050"
     bordercolor="#ffffff"
     borderopacity="1"
     inkscape:showpageshadow="0"
     inkscape:pageopacity="0"
     inkscape:pagecheckerboard="1"
     inkscape:deskcolor="#505050"
     inkscape:document-units="mm"
     showgrid="false"
     inkscape:zoom="0.52724989"
     inkscape:cx="280.70182"
     inkscape:cy="610.71611"
     inkscape:window-width="1920"
     inkscape:window-height="1017"
     inkscape:window-x="-8"
     inkscape:window-y="-8"
     inkscape:window-maximized="1"
     inkscape:current-layer="g2317" /><defs
     id="defs2"><clipPath
       id="clip0_538_9"><rect
         width="361"
         height="333"
         fill="white"
         id="rect2274" /></clipPath><clipPath
       id="clip0_255_24"><rect
         width="729.78003"
         height="566.21997"
         fill="#ffffff"
         transform="translate(5327.83,216.89)"
         id="rect39"
         x="0"
         y="0" /></clipPath></defs><g
     inkscape:label="Ebene 1"
     inkscape:groupmode="layer"
     id="layer1"><g
       style="fill:none"
       id="g2317"
       transform="matrix(0.15647624,0,0,0.15647624,139.23972,232.01139)"><path
         d="m -777.07091,-1247.9172 c -25.55828,-34.6355 -49.04119,-70.6359 -70.45571,-107.9942 -1.28622,-2.2422 -0.47048,-5.1103 1.79692,-6.3454 10.47949,-5.6591 39.69877,-18.0037 68.55399,1.3404 13.84779,9.2953 20.86736,9.7409 26.80435,5.9683 5.91745,-3.7681 5.23444,-15.7169 4.618,-26.4701 -1.83689,-31.4361 18.15399,-54.4287 26.75041,-62.8058 1.968,-1.9296 5.17677,-1.69 6.86837,0.4887 26.44318,34.4667 50.10753,70.2227 70.24447,107.6374 1.23808,2.3079 0.30971,5.1916 -2.04609,6.3205 -10.91683,5.2609 -40.98675,16.7405 -68.25316,-0.2151 -10.51718,-6.5216 -18.8638,-10.9173 -26.05473,-6.3899 -7.1834,4.5216 -7.50832,13.3894 -5.36762,26.8917 5.15376,32.4205 -17.50393,54.74 -26.832,62.3894 -2.0307,1.6683 -5.06263,1.284 -6.6287,-0.8361 z"
         fill="white"
         id="path17"
         style="fill:#ff5000;fill-opacity:1;stroke-width:0.944147"
         inkscape:export-filename="diabolo.png"
         inkscape:export-xdpi="300"
         inkscape:export-ydpi="300" /><path
         d="m -637.72314,322.63543 c 16.69188,-39.6765 35.61805,-78.2676 56.76893,-115.7758 1.26897,-2.252 4.15079,-3.0179 6.37176,-1.7011 10.22253,6.111 35.77417,24.9065 33.90874,59.5956 -0.90551,16.6537 2.3016,22.9137 8.57984,26.0861 6.26439,3.1579 16.18297,-3.5401 25.1082,-9.5693 26.07438,-17.6558 56.05643,-12.2363 67.65155,-9.1335 2.66465,0.7043 4.09982,3.5842 3.09274,6.1521 -16.09425,40.3506 -34.71761,78.9727 -56.57035,115.4119 -1.35005,2.2442 -4.30288,2.9212 -6.4778,1.4742 -10.10402,-6.6905 -35.34738,-26.6593 -34.72188,-58.7617 0.22537,-12.373 -0.26601,-21.7935 -7.83417,-25.6574 -7.55934,-3.8604 -15.34583,0.3956 -25.85387,9.1407 -25.22396,21.0096 -55.99148,12.9541 -67.33546,8.8504 -2.47217,-0.8918 -3.69255,-3.6938 -2.67163,-6.1238 z"
         fill="white"
         id="path17-0"
         style="fill:#ff5000;fill-opacity:1;stroke-width:0.944147"
         inkscape:export-filename="diabolo.png"
         inkscape:export-xdpi="300"
         inkscape:export-ydpi="300" /><path
         fill-rule="evenodd"
         clip-rule="evenodd"
         d="m 171.39045,-1455.9095 c 0.38462,-0.5809 1.09287,-1.6231 1.1967,-1.7633 3.85037,-5.6329 13.81531,-5.442 17.32716,4.5904 1.34673,3.8714 6.05693,6.4629 8.99527,8.422 18.6864,12.5253 37.31785,25.1837 56.16912,37.4844 12.87137,8.3842 24.93053,18.0204 39.0596,24.5567 23.28514,10.7896 46.21435,22.2861 69.53336,33.0059 14.15698,6.5231 27.21982,14.5986 37.81185,26.0142 7.58091,8.1832 13.96793,17.5524 21.04529,26.2544 2.29823,2.8278 3.13227,6.1392 1.42705,9.4722 -0.30868,0.5937 -0.63035,1.195 -0.95931,1.782 -0.0276,0.049 -0.0552,0.098 -0.0754,0.126 -0.3368,0.5734 -0.65163,1.1533 -1.00251,1.6991 -0.39899,0.5177 -0.79869,1.0359 -1.21867,1.5475 -0.0344,0.036 -0.0551,0.063 -0.0968,0.119 -0.42689,0.5329 -0.86746,1.0372 -1.30194,1.5553 -2.48909,2.7894 -5.88126,3.1929 -9.33408,2.0731 -10.68112,-3.4406 -21.73701,-6.0088 -32.10248,-10.0991 -14.4842,-5.7267 -26.74263,-14.9649 -37.9426,-25.8255 -18.45094,-17.8493 -37.48142,-35.0549 -55.97416,-52.8483 -11.19938,-10.7914 -24.55181,-18.5448 -37.03026,-27.4953 -18.28759,-13.1133 -36.837,-25.8831 -55.27535,-38.7789 -2.88353,-2.0226 -7.00286,-5.4747 -11.09961,-5.3233 -10.62137,0.3718 -14.40505,-8.8586 -10.56839,-14.4835 0.10299,-0.1401 0.83227,-1.176 1.21075,-1.7358 0,0 0.0545,-0.097 0.10959,-0.1603 0.0547,-0.099 0.0964,-0.1547 0.11697,-0.1825 z"
         fill="white"
         id="path13"
         style="fill:#ff5000;fill-opacity:1;stroke-width:0.792924"
         inkscape:export-filename="keule.png"
         inkscape:export-xdpi="300"
         inkscape:export-ydpi="300" /><path
         fill-rule="evenodd"
         clip-rule="evenodd"
         d="m -686.74998,-585.67678 c -0.56236,0.4113 -1.58835,1.1428 -1.73439,1.2383 -5.56633,3.946 -14.84532,0.3077 -14.65616,-10.3199 0.0809,-4.0981 -3.43676,-8.1636 -5.5123,-11.0208 -13.17637,-18.2332 -26.255,-36.5721 -39.66395,-54.6519 -9.16048,-12.3309 -17.12464,-25.5541 -28.10609,-36.5886 -18.09166,-18.2018 -35.60413,-36.943 -53.75178,-55.0911 -11.0122,-11.0319 -20.45941,-23.1398 -26.42998,-37.5224 -4.26878,-10.3059 -7.00622,-21.3097 -10.62268,-31.9274 -1.17367,-3.4497 -0.80634,-6.8447 1.94985,-9.3785 0.49558,-0.4496 1.00598,-0.9019 1.51826,-1.3382 0.0429,-0.036 0.0858,-0.073 0.11445,-0.092 0.5149,-0.4208 1.01146,-0.8553 1.52999,-1.2454 0.55389,-0.347 1.10862,-0.6942 1.68008,-1.0282 0.0448,-0.022 0.0735,-0.04 0.13209,-0.078 0.58533,-0.3516 1.17357,-0.6716 1.76088,-1.0066 3.30261,-1.7519 6.6239,-0.9528 9.47328,1.296 8.82255,6.9344 18.2994,13.1809 26.60039,20.615 11.59553,10.3986 19.88473,23.3177 26.6181,37.3909 11.10739,23.1443 22.98173,45.8862 34.14772,68.9926 6.75684,14.008 16.58744,25.9144 25.18285,38.6401 12.59824,18.6461 25.56126,37.061 38.37639,55.5555 2.0021,2.8978 4.66691,7.5652 8.56146,8.8454 10.08993,3.3384 10.4341,13.3082 4.88341,17.2515 -0.14522,0.096 -1.18875,0.814 -1.73802,1.2076 0,0 -0.0848,0.072 -0.15842,0.1123 -0.0857,0.074 -0.14411,0.1116 -0.17305,0.1305 z"
         fill="white"
         id="path13-4"
         style="fill:#ff5000;fill-opacity:1;stroke-width:0.792924"
         inkscape:export-filename="keule.png"
         inkscape:export-xdpi="300"
         inkscape:export-ydpi="300" /><path
         fill-rule="evenodd"
         clip-rule="evenodd"
         d="m 6.5017737,177.76159 c 0.45333,0.52903 1.26168,1.49566 1.36808,1.63392 4.3628103,5.24602 1.44972,14.77757 -9.16093,15.40713 -4.09222,0.23481 -7.87478,4.05503 -10.5637897,6.34438 -17.16467,14.54094 -34.44229,28.99258 -51.436111,43.7536 -11.589149,10.08259 -24.159939,19.0411 -34.316349,30.83945 -16.754994,19.43923 -34.092354,38.34252 -50.789484,57.83344 -10.15137,11.82881 -21.49607,22.1801 -35.37634,29.2402 -9.94673,5.04952 -20.70707,8.62595 -31.01483,13.04907 -3.34916,1.43578 -6.76237,1.33089 -9.50082,-1.22205 -0.48644,-0.4595 -0.97664,-0.93357 -1.45108,-1.41073 -0.0396,-0.04 -0.0791,-0.0799 -0.10053,-0.10703 -0.45922,-0.48098 -0.93071,-0.94261 -1.35952,-1.42957 -0.38861,-0.52554 -0.77751,-1.05189 -1.15451,-1.59594 -0.0252,-0.0429 -0.0455,-0.0702 -0.0879,-0.12569 -0.39559,-0.55653 -0.75992,-1.11839 -1.1392,-1.67816 -2.00093,-3.15794 -1.45985,-6.5309 0.56288,-9.54495 6.23468,-9.33021 11.73298,-19.25981 18.50606,-28.10848 9.47505,-12.36166 21.71764,-21.62084 35.23067,-29.41764 22.22055,-12.85619 43.98077,-26.44607 66.15901,-39.35777 13.446314,-7.81519 24.560554,-18.53323 36.586713,-28.08281 17.62094,-13.99632 34.983231,-28.33854 52.436291,-42.53944 2.73507,-2.21924 7.18347,-5.23546 8.16,-9.217 2.5517197,-10.317 12.46548973,-11.42767 16.8243697,-6.19703 0.10653,0.13743 0.90306,1.12256 1.33778,1.6399 0,0 0.0784,0.079 0.12415,0.1493 0.0802,0.0797 0.12238,0.13509 0.14348,0.16249 z"
         fill="white"
         id="path13-3"
         style="fill:#ff5000;fill-opacity:1;stroke-width:0.792924"
         inkscape:export-filename="keule.png"
         inkscape:export-xdpi="300"
         inkscape:export-ydpi="300" /><g
         clip-path="url(#clip0_255_24)"
         id="g37"
         style="fill:#ff5000;fill-opacity:1"
         inkscape:export-filename="ejc.png"
         inkscape:export-xdpi="300"
         inkscape:export-ydpi="300"
         transform="matrix(0.44080446,0.2938848,-0.2938848,0.44080446,-2117.3537,-1661.9968)"><path
           d="m 5783.25,610.57 c 5.23,24.92 5.81,46.74 1.75,65.45 -4.07,18.7 -11.75,34.82 -23.04,48.34 -11.3,13.53 -25.49,25.31 -42.85,33.8 -17.38,8.48 -36.41,15.96 -57.78,20.44 -32.4,6.8 -58.08,5.38 -76.08,-0.69 -18.01,-6.08 -28.69,-17.12 -32.06,-33.15 -2.24,-10.68 -0.93,-19.98 3.91,-27.87 4.85,-7.9 11.59,-13.87 20.22,-17.91 8.63,-4.04 18.32,-5.71 29.07,-4.99 10.75,0.72 20.98,4.7 30.68,11.96 -4.37,5.75 -6.95,11.59 -7.75,17.52 -0.79,5.93 -0.26,11.11 1.59,15.56 1.86,4.44 4.21,8.05 7.87,10.45 3.66,2.4 8.05,2.95 12.32,2.05 6.05,-1.27 10.79,-5.71 14.22,-13.3 3.42,-7.6 5.75,-17.76 6.99,-30.47 1.23,-12.72 1.07,-27.65 -0.48,-44.8 -1.56,-17.15 -4.5,-36.05 -8.84,-56.71 l -9.87,-47.01 c -5.16,-24.57 -11.27,-44.39 -18.34,-59.45 -7.07,-15.06 -13.85,-27.02 -20.36,-35.88 -6.51,-8.86 -12.2,-14.98 -16.88,-19.32 -4.56,-4.23 -7.42,-7.45 -8.02,-10.31 -0.9,-4.27 2.08,-9.54 8.95,-15.82 6.86,-6.27 15.82,-12.71 26.9,-19.31 11.07,-6.59 23.23,-12.87 36.49,-18.81 13.25,-5.94 25.78,-10.43 37.61,-13.47 11.82,-3.04 21.9,-4.13 30.26,-3.29 8.35,0.85 13.56,4.6 14.67,11.42 5.01,30.74 6.51,61.57 11.15,91.64 4.64,30.08 10.14,60.25 16.49,90.52 l 11.21,53.42 z"
           fill="white"
           id="path29"
           style="fill:#ff5000;fill-opacity:1" /><path
           d="m 5583.43,590.08 c 1.28,7.17 -0.2,26.69 -7.32,42.19 -6.89,15 -16.49,29.67 -37,40.89 -18.28,9.99 -41.89,13.89 -63.01,14.75 -18.58,0.58 -42.51,-2.88 -59.2,-9.35 -16.7,-6.47 -31.49,-15.62 -44.37,-27.47 -12.89,-11.85 -23.28,-25.88 -31.19,-42.1 -7.91,-16.21 -12.34,-33.59 -13.3,-52.13 -0.99,-18.89 1.56,-36.78 7.66,-53.63 6.09,-16.85 14.87,-31.89 26.33,-45.11 11.45,-13.22 25.19,-23.96 41.2,-32.22 16.01,-8.26 33.26,-13.23 51.74,-14.91 17.06,-1.22 33.11,0.01 48.14,3.67 15.04,3.67 28.11,9.3 39.24,16.9 11.12,7.6 20.08,16.81 26.87,27.63 6.79,10.83 10.64,22.59 11.55,35.29 0.67,9.44 -1.18,18.65 -3.79,27.36 -2.69,8.98 -8.04,16.54 -14.49,23.2 -13.95,14.13 -30.61,20.5 -50.01,20.91 -11.93,0.25 -24.22,-0.28 -35.78,-3.83 -11.57,-3.55 -21.83,-9.38 -30.8,-17.5 6.06,28.76 16.28,50.55 30.66,65.39 14.37,14.84 30.01,20.84 49.33,20.28 25.76,-0.75 41.9,-14.07 57.52,-40.19 z m -139.39,-56.29 c 14.54,-0.67 25.88,-6.68 34.01,-18.03 8.13,-11.34 11.54,-26.08 10.25,-44.24 -0.8,-11.25 -3.16,-19.93 -7.06,-26.04 -3.91,-6.1 -8.76,-8.95 -14.56,-8.54 -9.08,0.65 -15.82,8.34 -20.24,23.06 -4.42,14.73 -5.81,33.52 -4.18,56.39 0.21,2.91 0.42,5.81 0.62,8.71 0.21,2.91 0.59,5.8 1.17,8.67 z"
           fill="white"
           id="path31"
           style="fill:#ff5000;fill-opacity:1" /><path
           d="m 5923.33,648.38 c -34.92,-1.75 -60.44,-18.1 -74.92,-28.81 -14.49,-10.71 -26.42,-23.9 -35.8,-39.58 -9.39,-15.68 -15.17,-32.37 -17.34,-50.08 -2.18,-17.71 -0.78,-35.52 4.2,-53.41 3.72,-18.94 11.13,-36.07 22.23,-51.4 11.09,-15.33 24.91,-27.95 41.47,-37.88 16.47,-9.57 34.22,-15.48 53.26,-17.71 19.04,-2.24 37.51,-0.13 55.97,4.06 14.87,3.51 27.75,9.53 39.22,15.61 11.47,6.07 20.84,13.05 28.14,20.95 7.29,7.89 12.42,16.3 15.36,25.22 2.94,8.92 3.28,18.16 1.03,27.72 -3.18,13.46 -10.16,22.84 -20.95,28.14 -10.79,5.3 -22.02,6.58 -33.71,3.82 -7.44,-1.76 -14.59,-5.13 -21.45,-10.11 -6.87,-4.99 -12.51,-11.55 -16.94,-19.7 5.96,-3.08 10.82,-7.82 14.58,-14.23 3.76,-6.4 6.34,-12.99 7.75,-19.76 1.4,-6.77 1.17,-12.9 -0.7,-18.39 -1.88,-5.49 -5.48,-8.86 -10.79,-10.12 -4.61,-1.09 -9.53,0 -14.79,3.24 -5.26,3.24 -10.35,8.21 -15.29,14.9 -4.94,6.68 -9.48,14.78 -13.58,24.27 -4.12,9.5 -7.55,20.09 -10.31,31.78 -3.93,16.65 -5.63,32.14 -5.08,46.47 0.54,14.34 3.04,27.08 7.52,38.23 4.47,11.15 9.96,18.89 17.61,26.11 7.64,7.23 23.91,15.91 36.67,17.78 28.89,4.22 48.67,-12.56 48.67,-12.56 -1.7,9.22 -9.41,27.3 -26.89,38.33 -18.5,11.68 -45.48,18.59 -75.11,17.11 z"
           fill="white"
           id="path33"
           style="fill:#ff5000;fill-opacity:1" /><path
           fill-rule="evenodd"
           clip-rule="evenodd"
           d="m 5674.23,225.84 c -28.2,-17.4 -65.16,-8.65 -82.56,19.54 -17.4,28.2 -8.64,65.16 19.55,82.56 28.2,17.4 65.16,8.66 82.56,-19.54 17.4,-28.19 8.65,-65.15 -19.54,-82.56"
           fill="white"
           id="path35"
           style="fill:#ff5000;fill-opacity:1" /></g><path
         d="m -7.9236035,-1432.3562 c 39.4180195,0 71.4958055,32.0778 71.4958055,71.4958 0,39.418 -32.077786,71.4958 -71.4958055,71.4958 -39.4180105,0 -71.4957905,-32.0778 -71.4957905,-71.4958 0,-39.418 32.07778,-71.4958 71.4957905,-71.4958 z m 0,-23.832 c -52.6447405,0 -95.3277265,42.683 -95.3277265,95.3278 0,52.6447 42.682986,95.3277 95.3277265,95.3277 52.6447355,0 95.3277355,-42.683 95.3277355,-95.3277 0,-52.6448 -42.683,-95.3278 -95.3277355,-95.3278 z"
         fill="white"
         id="path11"
         style="font-variation-settings:normal;vector-effect:none;fill:#ff5000;fill-opacity:1;stroke-width:0.953274;stroke-linecap:butt;stroke-linejoin:miter;stroke-miterlimit:4;stroke-dasharray:none;stroke-dashoffset:0;stroke-opacity:1;-inkscape-stroke:none;stop-color:#000000"
         inkscape:export-filename="ring.png"
         inkscape:export-xdpi="300"
         inkscape:export-ydpi="300" /><path
         d="m 332.01737,-117.49028 c 39.41802,0 71.4958,32.077805 71.4958,71.495805 0,39.4180001 -32.07778,71.4958 -71.4958,71.4958 -39.41801,0 -71.49579,-32.0777999 -71.49579,-71.4958 0,-39.418 32.07778,-71.495805 71.49579,-71.495805 z m 0,-23.832 c -52.64474,0 -95.32773,42.683005 -95.32773,95.327805 0,52.6447001 42.68299,95.3277 95.32773,95.3277 52.64473,0 95.32773,-42.6829999 95.32773,-95.3277 0,-52.6448 -42.683,-95.327805 -95.32773,-95.327805 z"
         fill="white"
         id="path11-2"
         style="font-variation-settings:normal;vector-effect:none;fill:#ff5000;fill-opacity:1;stroke-width:0.953274;stroke-linecap:butt;stroke-linejoin:miter;stroke-miterlimit:4;stroke-dasharray:none;stroke-dashoffset:0;stroke-opacity:1;-inkscape-stroke:none;stop-color:#000000"
         inkscape:export-filename="ring.png"
         inkscape:export-xdpi="300"
         inkscape:export-ydpi="300" /><path
         d="m -517.83489,-1459.3951 c -22.5306,0 -40.80891,18.2767 -40.80891,40.8089 0,22.5323 18.27831,40.809 40.80891,40.809 22.53059,0 40.8089,-18.2767 40.8089,-40.809 0,-22.5322 -18.27831,-40.8089 -40.8089,-40.8089 z"
         fill="white"
         id="path15"
         style="fill:#ff5000;fill-opacity:1;stroke-width:0.408088"
         inkscape:export-filename="ball.png"
         inkscape:export-xdpi="300"
         inkscape:export-ydpi="300" /><path
         d="m 351.25931,-1148.3171 c -22.5306,0 -40.80891,18.2767 -40.80891,40.8089 0,22.5323 18.27831,40.809 40.80891,40.809 22.53059,0 40.8089,-18.2767 40.8089,-40.809 0,-22.5322 -18.27831,-40.8089 -40.8089,-40.8089 z"
         fill="white"
         id="path15-1"
         style="fill:#ff5000;fill-opacity:1;stroke-width:0.408088"
         inkscape:export-filename="ball.png"
         inkscape:export-xdpi="300"
         inkscape:export-ydpi="300" /><path
         d="m -787.22209,262.7584 c -22.5306,0 -40.80891,18.2767 -40.80891,40.8089 0,22.5323 18.27831,40.809 40.80891,40.809 22.53059,0 40.8089,-18.2767 40.8089,-40.809 0,-22.5322 -18.27831,-40.8089 -40.8089,-40.8089 z"
         fill="white"
         id="path15-2"
         style="fill:#ff5000;fill-opacity:1;stroke-width:0.408088"
         inkscape:export-filename="ball.png"
         inkscape:export-xdpi="300"
         inkscape:export-ydpi="300" /><path
         d="m -812.87801,-1032.8655 c -22.5306,0 -40.80891,18.2767 -40.80891,40.80885 0,22.5323 18.27831,40.809 40.80891,40.809 22.53059,0 40.8089,-18.2767 40.8089,-40.809 0,-22.53215 -18.27831,-40.80885 -40.8089,-40.80885 z"
         fill="white"
         id="path15-24"
         style="fill:#ff5000;fill-opacity:1;stroke-width:0.408088"
         inkscape:export-filename="ball.png"
         inkscape:export-xdpi="300"
         inkscape:export-ydpi="300" /></g></g></svg>
