<svg width="361" height="333" viewBox="0 0 361 333" fill="none" xmlns="http://www.w3.org/2000/svg">
<g clip-path="url(#clip0_538_9)">
<path fill-rule="evenodd" clip-rule="evenodd" d="M145.851 297.468C146.68 301.265 144.264 305.013 140.457 305.84C136.65 306.666 132.892 304.257 132.063 300.46C131.234 296.664 133.65 292.915 137.457 292.088C141.263 291.262 145.022 293.671 145.851 297.468Z" fill="#FF5000"/>
<path fill-rule="evenodd" clip-rule="evenodd" d="M239.127 302.639C237.996 306.359 234.058 308.461 230.328 307.333C226.598 306.205 224.491 302.277 225.622 298.557C226.753 294.837 230.691 292.735 234.421 293.863C238.15 294.991 240.258 298.919 239.127 302.639Z" fill="#FF5000"/>
<path fill-rule="evenodd" clip-rule="evenodd" d="M193.992 289.346C193.992 293.786 190.381 297.388 185.929 297.388C181.477 297.388 177.863 293.786 177.863 289.346C177.863 284.905 181.473 281.301 185.929 281.301C190.385 281.301 193.992 284.902 193.992 289.346Z" fill="#FF5000"/>
<path d="M205.146 298.019C207.703 291.114 210.25 282.39 210.617 274.758C210.983 268.946 204.889 263.592 203.328 270.394C199.084 288.923 200.472 301.181 187.901 301.803C175.524 302.408 173.111 292.626 170.921 284.267C170.198 280.269 169.803 276.578 169.073 272.944C168.344 270.038 169.022 268.247 165.793 267.853C163.625 267.591 161.784 269.673 161.784 271.487C161.055 282.39 165.794 295.113 168.341 305.285C170.31 313.097 170.413 324.077 171.875 332.577C176.703 332.853 181.567 333 186.462 333C190.539 333 194.59 332.901 198.618 332.708C198.959 327.54 199.045 320.879 199.752 317.105C200.848 310.2 202.958 304.923 205.143 298.019H205.146Z" fill="#FF5000"/>
<path d="M157.004 303.498C157.901 297.122 158.45 289.189 157.342 282.598C156.567 277.558 150.04 276.171 149.975 282.278C149.796 298.906 153.082 306.224 142.966 309.931C132.792 313.658 128.613 304.834 125.185 298.093C123.81 294.809 122.785 291.723 121.484 288.753C120.325 286.404 119.788 282.012 116.952 282.278C115.047 282.457 114.645 287.311 114.982 288.868C116.393 298.32 125.513 314.709 129.593 322.933C130.312 324.388 130.881 325.708 131.356 326.938C139.937 328.857 148.684 330.344 157.573 331.36C156.754 327.069 155.674 322.123 155.594 319.329C155.244 313.225 156.423 309.813 157.004 303.501V303.498Z" fill="#FF5000"/>
<path d="M257.139 295.199C258.922 290.422 252.722 287.702 249.551 292.937C239.872 308.909 240.287 314.734 229.756 311.786C219.319 308.868 221.189 300.669 221.487 293.123C221.889 289.589 222.503 286.398 222.811 283.172C222.946 280.551 224.623 276.453 222.017 275.312C220.27 274.55 217.543 278.59 217.086 280.109C213.7 289.054 213.665 307.797 213.212 316.958C212.913 323.036 211.837 327.307 211.201 331.795C220.154 330.921 228.966 329.578 237.617 327.787C240.193 322.683 243.261 318.223 246.644 313.292C250.537 308.16 254.89 301.498 257.139 295.199Z" fill="#FF5000"/>
<path d="M217.597 197.997C219.277 205.981 219.464 212.972 218.159 218.967C216.852 224.958 214.385 230.123 210.758 234.455C207.128 238.79 202.569 242.564 196.993 245.284C191.409 248.001 185.296 250.398 178.431 251.833C168.023 254.012 159.773 253.557 153.991 251.612C148.205 249.664 144.775 246.127 143.692 240.991C142.972 237.569 143.393 234.589 144.948 232.062C146.506 229.53 148.671 227.618 151.444 226.323C154.216 225.029 157.329 224.494 160.782 224.724C164.235 224.955 167.522 226.23 170.638 228.556C169.234 230.399 168.405 232.27 168.148 234.17C167.894 236.07 168.065 237.729 168.659 239.155C169.256 240.578 170.011 241.734 171.187 242.503C172.363 243.272 173.773 243.449 175.145 243.16C177.088 242.753 178.611 241.331 179.713 238.899C180.812 236.464 181.56 233.209 181.958 229.136C182.354 225.061 182.302 220.277 181.804 214.782C181.303 209.288 180.359 203.232 178.964 196.613L175.794 181.551C174.136 173.678 172.173 167.328 169.902 162.503C167.631 157.678 165.453 153.846 163.362 151.007C161.27 148.168 159.443 146.207 157.939 144.817C156.436 143.426 155.555 142.43 155.363 141.514C155.074 140.146 156.031 138.457 158.238 136.445C160.442 134.436 163.32 132.373 166.879 130.258C170.435 128.147 174.342 126.135 178.601 124.231C182.858 122.328 186.883 120.89 190.683 119.916C194.48 118.942 197.719 118.592 200.404 118.861C203.087 119.134 204.76 120.335 205.117 122.52C206.726 132.369 207.208 142.247 208.699 151.882C210.189 161.519 211.956 171.186 213.996 180.884L217.597 198V197.997Z" fill="#FF5000"/>
<path d="M153.406 191.432C153.818 193.729 153.342 199.983 151.055 204.949C148.842 209.755 145.758 214.456 139.169 218.051C133.297 221.251 125.712 222.501 118.927 222.776C112.959 222.962 105.271 221.854 99.9098 219.781C94.545 217.708 89.7938 214.776 85.6562 210.979C81.5154 207.183 78.1777 202.687 75.6367 197.491C73.0956 192.297 71.6725 186.728 71.3641 180.788C71.0461 174.736 71.8653 169.004 73.8248 163.605C75.7812 158.206 78.6017 153.388 82.2832 149.152C85.9614 144.916 90.3753 141.475 95.5184 138.829C100.661 136.182 106.203 134.59 112.139 134.052C117.62 133.661 122.776 134.055 127.604 135.227C132.436 136.403 136.634 138.207 140.21 140.642C143.782 143.077 146.66 146.028 148.842 149.495C151.023 152.965 152.26 156.733 152.552 160.802C152.767 163.826 152.173 166.777 151.334 169.568C150.47 172.445 148.752 174.867 146.68 177.001C142.198 181.528 136.846 183.569 130.614 183.701C126.782 183.781 122.834 183.611 119.12 182.473C115.403 181.336 112.107 179.468 109.226 176.866C111.173 186.081 114.456 193.063 119.075 197.817C123.691 202.572 128.716 204.494 134.922 204.315C143.197 204.075 148.382 199.807 153.4 191.438L153.406 191.432ZM108.628 173.397C113.299 173.182 116.942 171.256 119.554 167.62C122.165 163.986 123.261 159.264 122.847 153.445C122.59 149.841 121.831 147.06 120.579 145.102C119.322 143.148 117.764 142.235 115.901 142.366C112.984 142.574 110.819 145.038 109.399 149.754C107.979 154.474 107.533 160.494 108.056 167.822L108.256 170.612C108.323 171.545 108.445 172.471 108.632 173.39L108.628 173.397Z" fill="#FF5000"/>
<path d="M262.597 210.111C251.379 209.55 243.181 204.312 238.529 200.88C233.875 197.449 230.042 193.223 227.029 188.199C224.012 183.175 222.156 177.828 221.458 172.153C220.758 166.479 221.208 160.773 222.808 155.041C224.003 148.973 226.383 143.484 229.949 138.572C233.512 133.661 237.951 129.617 243.271 126.436C248.562 123.37 254.264 121.476 260.38 120.762C266.497 120.044 272.43 120.72 278.36 122.062C283.137 123.187 287.275 125.116 290.959 127.064C294.644 129.009 297.654 131.245 299.999 133.776C302.341 136.304 303.989 138.999 304.933 141.857C305.878 144.715 305.987 147.675 305.264 150.738C304.243 155.051 302.001 158.056 298.534 159.754C295.068 161.452 291.461 161.862 287.705 160.978C285.315 160.414 283.018 159.334 280.815 157.739C278.608 156.14 276.796 154.038 275.373 151.427C277.287 150.44 278.849 148.921 280.056 146.868C281.264 144.817 282.093 142.706 282.546 140.537C282.996 138.367 282.922 136.403 282.321 134.644C281.717 132.885 280.561 131.806 278.855 131.402C277.374 131.053 275.794 131.402 274.104 132.44C272.417 133.481 270.779 135.071 269.192 137.214C267.605 139.354 266.147 141.949 264.829 144.99C263.506 148.034 262.404 151.427 261.517 155.172C260.255 160.507 259.709 165.47 259.886 170.061C260.059 174.656 260.862 178.738 262.301 182.31C263.737 185.883 265.501 188.362 267.958 190.676C270.413 192.992 275.639 195.773 279.738 196.372C289.019 197.724 295.373 192.348 295.373 192.348C294.827 195.302 292.35 201.095 286.735 204.629C280.792 208.371 272.125 210.585 262.606 210.111H262.597Z" fill="#FF5000"/>
<path fill-rule="evenodd" clip-rule="evenodd" d="M182.575 74.7298C173.516 69.1548 161.643 71.9583 156.053 80.9904C150.464 90.0256 153.278 101.868 162.334 107.442C171.393 113.017 183.266 110.217 188.856 101.182C194.445 92.1498 191.634 80.3079 182.578 74.7298" fill="#FF5000"/>
<path fill-rule="evenodd" clip-rule="evenodd" d="M335.143 170.141C334.979 170.087 334.674 169.994 334.632 169.978C333 169.446 332.339 167.037 334.514 165.476C335.352 164.877 335.648 163.557 335.917 162.718C337.614 157.322 339.355 151.943 340.993 146.531C342.108 142.834 343.579 139.249 344.16 135.385C345.115 129.012 346.268 122.668 347.209 116.292C347.781 112.415 348.802 108.699 350.817 105.341C352.256 102.935 354.068 100.733 355.671 98.4137C356.194 97.6608 356.933 97.2218 357.858 97.398C358.025 97.4269 358.192 97.4653 358.356 97.5038C358.369 97.5038 358.379 97.5102 358.388 97.5134C358.549 97.5486 358.713 97.5903 358.873 97.6351H358.877C359.031 97.6928 359.188 97.7601 359.336 97.8178C359.349 97.8242 359.358 97.8306 359.368 97.837C359.526 97.9011 359.68 97.9716 359.834 98.0453C360.682 98.4426 361.022 99.2339 360.997 100.147C360.923 102.963 361.087 105.809 360.833 108.599C360.476 112.492 359.108 116.103 357.283 119.566C354.276 125.273 351.466 131.078 348.478 136.791C346.663 140.251 345.738 144.016 344.456 147.659C342.583 152.994 340.813 158.364 339.001 163.721C338.719 164.557 338.179 165.797 338.507 166.777C339.345 169.308 337.385 170.872 335.75 170.34C335.712 170.33 335.407 170.225 335.246 170.173C335.246 170.173 335.217 170.167 335.198 170.157C335.172 170.151 335.156 170.145 335.146 170.145L335.143 170.141Z" fill="#FF5000"/>
<path fill-rule="evenodd" clip-rule="evenodd" d="M1.38135 127.157C1.50664 127.086 1.73472 126.961 1.76685 126.945C3.00363 126.272 4.81865 127.24 4.52311 129.409C4.40746 130.245 5.03067 131.162 5.38725 131.796C7.64881 135.843 9.88787 139.909 12.2008 143.93C13.7813 146.672 15.0952 149.569 17.0805 152.09C20.3508 156.249 23.4893 160.504 26.7724 164.653C28.7641 167.174 30.4089 169.879 31.2859 172.964C31.9123 175.175 32.2078 177.491 32.6929 179.75C32.8503 180.484 32.6929 181.169 32.0665 181.621C31.9541 181.701 31.8384 181.781 31.7228 181.858C31.7131 181.865 31.7035 181.871 31.6971 181.874C31.5814 181.948 31.469 182.025 31.3533 182.092C31.2313 182.15 31.1092 182.208 30.9839 182.262C30.9743 182.265 30.9678 182.268 30.955 182.275C30.8265 182.333 30.698 182.384 30.5695 182.438C29.8499 182.717 29.1881 182.473 28.6581 181.945C27.0165 180.314 25.224 178.808 23.7013 177.088C21.5747 174.681 20.1869 171.839 19.1461 168.799C17.4274 163.797 15.5417 158.86 13.8102 153.865C12.763 150.837 11.0347 148.165 9.57948 145.355C7.44642 141.238 5.23306 137.159 3.05182 133.068C2.7113 132.427 2.27762 131.408 1.50985 131.053C-0.478643 130.127 -0.308384 128.079 0.925189 127.407C0.957314 127.391 1.18861 127.269 1.31068 127.202C1.31068 127.202 1.32996 127.189 1.34602 127.182C1.36529 127.169 1.37814 127.163 1.38457 127.16L1.38135 127.157Z" fill="#FF5000"/>
<path d="M109.023 68.3795C105.663 62.0484 102.679 55.5443 100.07 48.8672C99.913 48.4667 100.119 48.0149 100.523 47.8676C102.393 47.1947 107.52 45.8843 111.802 49.7803C113.858 51.6515 115.005 51.8982 116.078 51.424C117.148 50.9498 117.331 48.9665 117.495 47.1819C117.97 41.9626 121.838 38.6721 123.463 37.5059C123.836 37.2367 124.36 37.3553 124.584 37.7558C128.096 44.0804 131.115 50.5493 133.512 57.204C133.66 57.6141 133.435 58.0658 133.017 58.194C131.086 58.7899 125.841 59.937 121.761 56.4735C120.187 55.1406 118.918 54.2114 117.62 54.7786C116.322 55.3457 116.049 56.7971 116.068 59.0719C116.116 64.5347 111.825 67.649 110.096 68.6775C109.721 68.9017 109.229 68.764 109.023 68.3763V68.3795Z" fill="#FF5000"/>
<path d="M315.772 52.9075C319.344 47.4767 323.215 42.267 327.388 37.2816C327.639 36.9804 328.089 36.9484 328.381 37.2047C329.737 38.3902 333.02 41.8793 331.793 46.9737C331.202 49.4215 331.507 50.4372 332.355 51.078C333.203 51.7188 334.857 50.9979 336.351 50.3443C340.714 48.4379 345.028 50.0623 346.666 50.8377C347.042 51.0171 347.18 51.4817 346.959 51.8341C343.46 57.3802 339.631 62.6027 335.381 67.4119C335.117 67.7099 334.661 67.7259 334.375 67.4536C333.058 66.1848 329.849 62.5322 330.822 57.7839C331.195 55.9544 331.378 54.5415 330.36 53.7629C329.338 52.9843 328.066 53.4009 326.264 54.4133C321.934 56.8419 317.581 54.8042 316.004 53.8847C315.66 53.6828 315.554 53.2375 315.772 52.9042V52.9075Z" fill="#FF5000"/>
<path d="M260.38 238.982C265.694 238.982 270.018 243.295 270.018 248.594C270.018 253.894 265.694 258.206 260.38 258.206C255.067 258.206 250.743 253.894 250.743 248.594C250.743 243.295 255.067 238.982 260.38 238.982ZM260.38 235.778C253.284 235.778 247.531 241.517 247.531 248.594C247.531 255.672 253.284 261.41 260.38 261.41C267.477 261.41 273.23 255.672 273.23 248.594C273.23 241.517 267.477 235.778 260.38 235.778Z" fill="#FF5000"/>
<path d="M94.0342 249.555C99.4793 249.555 103.906 253.814 103.906 259.049C103.906 264.284 99.4761 268.542 94.0342 268.542C88.5924 268.542 84.1624 264.284 84.1624 259.049C84.1624 253.814 88.5924 249.555 94.0342 249.555ZM94.0342 246.39C86.7645 246.39 80.8729 252.058 80.8729 259.046C80.8729 266.034 86.7645 271.701 94.0342 271.701C101.304 271.701 107.196 266.034 107.196 259.046C107.196 252.058 101.301 246.39 94.0342 246.39Z" fill="#FF5000"/>
<path d="M23.3897 53.6827C28.7031 53.6827 33.027 57.9953 33.027 63.2947C33.027 68.5941 28.7031 72.9067 23.3897 72.9067C18.0763 72.9067 13.7524 68.5941 13.7524 63.2947C13.7524 57.9953 18.0763 53.6827 23.3897 53.6827ZM23.3897 50.4788C16.2934 50.4788 10.54 56.2171 10.54 63.2947C10.54 70.3723 16.2934 76.1107 23.3897 76.1107C30.486 76.1107 36.2394 70.3723 36.2394 63.2947C36.2394 56.2171 30.486 50.4788 23.3897 50.4788Z" fill="#FF5000"/>
<path d="M267.11 3.20399C272.424 3.20399 276.748 7.51655 276.748 12.816C276.748 18.1153 272.424 22.4279 267.11 22.4279C261.797 22.4279 257.473 18.1153 257.473 12.816C257.473 7.51655 261.797 3.20399 267.11 3.20399ZM267.11 0C260.014 0 254.261 5.73834 254.261 12.816C254.261 19.8936 260.014 25.6319 267.11 25.6319C274.207 25.6319 279.96 19.8936 279.96 12.816C279.96 5.73834 274.207 0 267.11 0Z" fill="#FF5000"/>
<path d="M70.9337 101.031C66.8346 101.031 63.5097 104.348 63.5097 108.436C63.5097 112.524 66.8346 115.84 70.9337 115.84C75.0327 115.84 78.3576 112.524 78.3576 108.436C78.3576 104.348 75.0327 101.031 70.9337 101.031Z" fill="#FF5000"/>
<path d="M28.7962 222.837C25.1019 222.837 22.1047 225.718 22.1047 229.271C22.1047 232.824 25.1019 235.704 28.7962 235.704C32.4905 235.704 35.4877 232.824 35.4877 229.271C35.4877 225.718 32.4905 222.837 28.7962 222.837Z" fill="#FF5000"/>
<path d="M312.425 209.624C308.731 209.624 305.733 212.504 305.733 216.058C305.733 219.611 308.731 222.491 312.425 222.491C316.119 222.491 319.116 219.611 319.116 216.058C319.116 212.504 316.119 209.624 312.425 209.624Z" fill="#FF5000"/>
<path d="M199.155 29.9604C195.056 29.9604 191.731 33.2766 191.731 37.3649C191.731 41.4532 195.056 44.7693 199.155 44.7693C203.254 44.7693 206.578 41.4532 206.578 37.3649C206.578 33.2766 203.254 29.9604 199.155 29.9604Z" fill="#FF5000"/>
<path d="M231.52 106.555C232.381 107.503 233.107 108.276 233.714 108.862C234.321 109.451 234.829 109.916 235.243 110.249C235.657 110.582 235.995 110.813 236.261 110.932C236.525 111.053 236.734 111.134 236.888 111.169C237.042 111.207 237.158 111.236 237.235 111.255C237.312 111.275 237.373 111.335 237.418 111.441C237.572 111.797 237.399 112.207 236.91 112.675C236.419 113.146 235.677 113.613 234.681 114.11C234.189 114.357 233.72 114.565 233.271 114.738C232.824 114.911 232.426 115.033 232.076 115.107C231.725 115.177 231.43 115.196 231.182 115.161C230.935 115.123 230.768 115.03 230.681 114.876C230.627 114.78 230.614 114.693 230.643 114.619C230.675 114.546 230.707 114.459 230.736 114.357C230.768 114.254 230.781 114.123 230.778 113.956C230.778 113.79 230.707 113.569 230.575 113.29C230.444 113.011 230.235 112.665 229.946 112.252C229.657 111.838 229.233 111.335 228.674 110.739C227.379 111.47 226.104 112.242 224.844 113.056C225.153 113.838 225.429 114.469 225.667 114.953C225.904 115.437 226.12 115.815 226.312 116.097C226.505 116.375 226.672 116.571 226.814 116.683C226.955 116.795 227.08 116.872 227.186 116.92C227.292 116.968 227.382 117 227.456 117.019C227.53 117.042 227.591 117.09 227.642 117.173C227.774 117.378 227.726 117.644 227.498 117.974C227.273 118.307 226.926 118.628 226.467 118.945C225.991 119.268 225.583 119.464 225.236 119.525C224.889 119.586 224.632 119.506 224.472 119.284C224.395 119.182 224.366 119.079 224.388 118.987C224.407 118.894 224.433 118.756 224.462 118.573C224.491 118.394 224.517 118.147 224.533 117.836C224.552 117.526 224.52 117.099 224.446 116.551C224.369 116.004 224.231 115.321 224.035 114.495C223.839 113.671 223.543 112.652 223.151 111.438C223.058 111.14 222.965 110.842 222.875 110.547C222.554 109.48 222.271 108.593 222.011 107.885C221.751 107.177 221.516 106.61 221.301 106.177C221.089 105.748 220.896 105.43 220.723 105.222C220.553 105.014 220.389 104.873 220.241 104.796C220.045 104.71 219.9 104.668 219.81 104.668C219.721 104.668 219.643 104.623 219.582 104.527C219.38 104.216 219.553 103.752 220.112 103.143C220.671 102.537 221.542 101.877 222.731 101.198C223.948 100.503 225.008 100.064 225.898 99.8555C226.785 99.6505 227.321 99.7402 227.501 100.099C227.552 100.202 227.559 100.298 227.52 100.387C227.482 100.48 227.453 100.592 227.437 100.727C227.421 100.862 227.44 101.051 227.498 101.294C227.556 101.538 227.71 101.858 227.96 102.255C228.211 102.656 228.577 103.156 229.059 103.764C229.538 104.373 230.196 105.12 231.022 106.01C231.189 106.19 231.356 106.369 231.52 106.549V106.555ZM224.083 110.717C224.154 110.941 224.215 111.15 224.276 111.342C224.334 111.534 224.395 111.72 224.452 111.893C225.564 111.178 226.692 110.496 227.832 109.849C227.713 109.73 227.581 109.605 227.443 109.471C227.305 109.336 227.157 109.202 227.01 109.064C226.778 108.852 226.547 108.641 226.316 108.429C225.284 107.439 224.189 106.581 223.02 105.869C223.103 106.577 223.212 107.276 223.351 107.971C223.489 108.666 223.669 109.346 223.884 110.012C223.948 110.249 224.016 110.483 224.083 110.72V110.717Z" fill="#FF5000"/>
<path d="M236.843 106.497C236.57 105.841 236.268 105.312 235.93 104.918C235.593 104.524 235.272 104.206 234.967 103.966C234.662 103.726 234.395 103.546 234.164 103.425C233.932 103.303 233.791 103.188 233.74 103.066C233.662 102.89 233.74 102.633 233.977 102.303C234.215 101.973 234.546 101.618 234.97 101.246C235.394 100.871 235.873 100.509 236.409 100.157C236.942 99.8042 237.463 99.5287 237.961 99.3236C238.459 99.1217 238.896 99.016 239.265 99.0096C239.634 99.0032 239.869 99.1474 239.965 99.4389C240.001 99.5447 240.042 99.7305 240.087 99.9868C240.132 100.243 240.187 100.567 240.251 100.954C240.402 100.185 240.736 99.5126 241.253 98.9327C241.771 98.356 242.397 97.9427 243.126 97.7024C243.807 97.4076 244.485 97.4268 245.144 97.7568C245.802 98.0869 246.217 98.6187 246.393 99.3396C246.519 99.8426 246.49 100.32 246.316 100.772C246.143 101.224 245.86 101.586 245.465 101.858C245.083 102.111 244.655 102.226 244.18 102.204C243.705 102.182 243.277 102.018 242.895 101.711C242.972 101.55 243.007 101.377 242.998 101.185C242.988 100.993 242.943 100.813 242.86 100.644C242.776 100.474 242.657 100.346 242.5 100.259C242.342 100.173 242.169 100.157 241.973 100.218C241.706 100.301 241.498 100.515 241.356 100.855C241.215 101.198 241.138 101.643 241.125 102.191C241.112 102.739 241.18 103.373 241.321 104.094C241.462 104.815 241.681 105.603 241.97 106.459C242.208 107.164 242.448 107.664 242.689 107.955C242.93 108.25 243.155 108.452 243.367 108.561C243.579 108.67 243.756 108.734 243.897 108.747C244.039 108.759 244.132 108.83 244.17 108.952C244.219 109.105 244.183 109.278 244.064 109.467C243.945 109.66 243.756 109.858 243.493 110.063C243.229 110.268 242.905 110.473 242.516 110.679C242.127 110.884 241.684 111.079 241.186 111.265C240.206 111.633 239.371 111.842 238.667 111.87C237.967 111.902 237.546 111.777 237.418 111.48C237.354 111.332 237.366 111.178 237.46 111.025C237.553 110.871 237.63 110.646 237.691 110.358C237.752 110.07 237.758 109.672 237.71 109.166C237.662 108.66 237.463 107.984 237.113 107.132C237.023 106.914 236.933 106.699 236.843 106.481V106.497Z" fill="#FF5000"/>
<path d="M248.967 102.675C248.809 101.983 248.603 101.409 248.337 100.964C248.073 100.519 247.813 100.15 247.556 99.8618C247.299 99.5735 247.068 99.3492 246.862 99.1922C246.657 99.0352 246.538 98.8942 246.506 98.7661C246.461 98.577 246.589 98.3303 246.904 98.0227C247.219 97.7151 247.63 97.4108 248.147 97.1064C248.661 96.8052 249.227 96.5233 249.84 96.2734C250.454 96.0234 251.022 95.8536 251.536 95.7639C251.989 95.6838 252.368 95.6838 252.667 95.7479C252.966 95.8152 253.136 95.985 253.178 96.2573C253.194 96.3695 253.204 96.5649 253.207 96.8405C253.21 97.1192 253.213 97.4492 253.22 97.8337C253.226 98.2182 253.242 98.6475 253.271 99.1249C253.3 99.6023 253.348 100.099 253.416 100.612C253.49 98.9967 253.865 97.6767 254.563 96.6674C255.256 95.6614 256.233 95.0815 257.451 94.9629C258.096 94.8988 258.678 94.9854 259.185 95.2128C259.693 95.4403 260.104 95.796 260.412 96.2701C260.721 96.7443 260.923 97.3275 261.023 98.0195C261.122 98.7084 261.109 99.4805 260.997 100.326C260.891 101.06 260.791 101.797 260.695 102.531C260.612 103.216 260.64 103.764 260.779 104.178C260.917 104.591 261.145 104.786 261.463 104.767C261.752 104.751 261.974 104.581 262.128 104.248C262.227 104.017 262.324 103.924 262.411 103.969C262.526 104.046 262.52 104.274 262.398 104.649C262.15 105.421 261.746 106.029 261.183 106.481C260.621 106.936 260.004 107.157 259.317 107.154C258.395 107.234 257.666 107.023 257.107 106.504C256.551 105.985 256.268 105.238 256.284 104.261C256.297 103.306 256.317 102.351 256.339 101.397C256.374 100.464 256.278 99.7305 256.037 99.1986C255.796 98.6667 255.478 98.4232 255.086 98.4777C254.829 98.5129 254.608 98.6699 254.428 98.9487C254.245 99.2274 254.106 99.6023 254.01 100.076C253.914 100.547 253.869 101.102 253.872 101.739C253.872 102.377 253.939 103.079 254.058 103.844C254.158 104.482 254.299 104.947 254.479 105.238C254.659 105.53 254.832 105.735 255.006 105.856C255.176 105.978 255.33 106.058 255.468 106.097C255.607 106.135 255.684 106.219 255.7 106.347C255.722 106.507 255.658 106.67 255.51 106.837C255.362 107.004 255.144 107.167 254.852 107.327C254.563 107.487 254.209 107.631 253.795 107.769C253.38 107.904 252.915 108.022 252.401 108.118C251.382 108.314 250.534 108.375 249.843 108.285C249.153 108.195 248.767 108 248.69 107.686C248.652 107.529 248.69 107.382 248.806 107.247C248.922 107.109 249.034 106.907 249.14 106.632C249.246 106.36 249.317 105.969 249.355 105.462C249.391 104.956 249.31 104.254 249.108 103.354C249.056 103.127 249.005 102.896 248.954 102.669L248.967 102.675Z" fill="#FF5000"/>
<path d="M275.89 105.45C276.192 105.494 276.449 105.373 276.667 105.078C276.799 104.87 276.911 104.799 277.001 104.863C277.098 104.963 277.046 105.18 276.85 105.526C276.452 106.231 275.932 106.744 275.286 107.077C274.643 107.407 273.991 107.503 273.32 107.359C272.398 107.253 271.727 106.901 271.29 106.279C270.853 105.661 270.728 104.873 270.943 103.915C271.148 102.983 271.36 102.05 271.579 101.121C271.8 100.214 271.855 99.4774 271.73 98.9071C271.604 98.3367 271.341 98.0356 270.946 98.0067C270.689 97.9875 270.435 98.09 270.194 98.3079C269.953 98.5258 269.738 98.8526 269.549 99.2787C269.359 99.7048 269.205 100.224 269.08 100.833C268.954 101.441 268.874 102.127 268.839 102.883C268.803 103.627 268.839 104.174 268.948 104.527C269.054 104.879 269.176 105.132 269.314 105.286C269.449 105.44 269.574 105.536 269.69 105.575C269.806 105.613 269.857 105.699 269.847 105.828C269.838 105.988 269.738 106.142 269.552 106.283C269.365 106.427 269.112 106.539 268.79 106.629C268.469 106.718 268.09 106.786 267.66 106.837C267.229 106.888 266.757 106.907 266.246 106.901C265.199 106.888 264.36 106.782 263.721 106.565C263.082 106.347 262.751 106.074 262.738 105.735C262.735 105.623 262.764 105.533 262.831 105.466C262.899 105.398 262.976 105.302 263.069 105.177C263.162 105.052 263.265 104.876 263.384 104.645C263.503 104.415 263.606 104.088 263.695 103.668C263.785 103.245 263.856 102.697 263.917 102.028C263.975 101.355 263.997 100.519 263.978 99.5158C263.972 99.1858 263.965 98.8526 263.959 98.5226C263.94 97.4396 263.843 96.5393 263.663 95.8248C263.483 95.1103 263.291 94.5272 263.088 94.0818C262.886 93.6365 262.693 93.2873 262.513 93.0437C262.337 92.8002 262.243 92.6048 262.237 92.4606C262.227 92.2011 262.394 91.932 262.748 91.6532C263.101 91.3745 263.551 91.1085 264.103 90.8586C264.656 90.6087 265.257 90.3941 265.909 90.221C266.561 90.048 267.171 89.9423 267.734 89.9006C268.296 89.859 268.762 89.8974 269.125 90.0096C269.488 90.1217 269.661 90.3364 269.645 90.6408C269.42 91.8102 269.243 92.9797 269.108 94.1459C268.974 95.3122 268.893 96.488 268.855 97.6671C268.845 97.9106 268.832 98.1509 268.823 98.3944C268.806 98.734 268.794 99.0512 268.781 99.3524C268.768 99.6504 268.762 99.9387 268.765 100.214C269.137 98.5162 269.767 97.1897 270.67 96.2541C271.572 95.3186 272.69 94.9085 273.966 95.043C274.611 95.1103 275.164 95.3122 275.617 95.639C276.07 95.9658 276.397 96.3951 276.606 96.9238C276.815 97.4524 276.895 98.0644 276.85 98.7597C276.809 99.4581 276.638 100.208 276.356 101.015C276.102 101.714 275.855 102.412 275.61 103.114C275.389 103.767 275.302 104.312 275.347 104.742C275.392 105.174 275.572 105.408 275.887 105.456L275.89 105.45Z" fill="#FF5000"/>
<path d="M286.754 107.475C285.99 108.115 285.167 108.554 284.281 108.801C283.394 109.048 282.536 109.067 281.682 108.859C281.023 108.647 280.439 108.317 279.921 107.859C279.401 107.401 278.971 106.853 278.627 106.212C278.283 105.571 278.045 104.863 277.914 104.085C277.782 103.306 277.788 102.512 277.943 101.704C278.097 100.878 278.383 100.131 278.81 99.4678C279.234 98.8046 279.758 98.2503 280.381 97.8082C281.004 97.3692 281.704 97.0681 282.475 96.9111C283.246 96.7541 284.033 96.7669 284.827 96.9463C285.553 97.1257 286.202 97.4045 286.767 97.7761C287.333 98.1478 287.782 98.5803 288.113 99.0673C288.444 99.5544 288.656 100.077 288.752 100.631C288.846 101.185 288.804 101.733 288.634 102.271C288.505 102.672 288.309 103.031 288.046 103.345C287.782 103.659 287.474 103.909 287.127 104.088C286.378 104.469 285.659 104.511 284.939 104.213C284.454 104.114 284.017 103.915 283.625 103.617C283.234 103.319 282.919 102.941 282.678 102.486C282.536 103.784 282.639 104.831 282.967 105.639C283.298 106.446 283.796 106.94 284.483 107.132C284.833 107.228 285.19 107.241 285.559 107.161C285.926 107.084 286.272 106.927 286.6 106.69C286.774 106.558 286.934 106.475 287.079 106.446C287.223 106.417 287.32 106.443 287.368 106.526C287.48 106.699 287.268 107.013 286.754 107.478V107.475ZM282.745 102.005C283.32 102.159 283.837 102.05 284.313 101.679C284.788 101.31 285.132 100.733 285.341 99.9548C285.469 99.471 285.498 99.0738 285.428 98.763C285.354 98.4522 285.196 98.2663 284.952 98.2023C284.57 98.1061 284.188 98.34 283.812 98.9071C283.436 99.4743 283.134 100.253 282.899 101.246C282.871 101.371 282.838 101.499 282.809 101.624C282.781 101.749 282.758 101.877 282.742 102.005H282.745Z" fill="#FF5000"/>
<path d="M289.864 104.975C290.098 104.303 290.221 103.71 290.233 103.191C290.243 102.675 290.214 102.223 290.147 101.842C290.079 101.461 289.999 101.15 289.909 100.906C289.819 100.663 289.79 100.483 289.832 100.358C289.893 100.176 290.118 100.035 290.513 99.9451C290.908 99.8554 291.387 99.8074 291.952 99.8074C292.514 99.8074 293.115 99.8522 293.748 99.9419C294.381 100.032 294.956 100.166 295.463 100.346C295.974 100.522 296.369 100.737 296.652 100.977C296.934 101.217 297.015 101.48 296.893 101.762C296.848 101.868 296.758 102.028 296.62 102.252C296.482 102.473 296.318 102.749 296.128 103.072C295.939 103.396 295.736 103.758 295.518 104.155C295.299 104.556 295.081 104.988 294.866 105.459C295.743 104.162 296.713 103.258 297.783 102.768C298.852 102.278 299.948 102.297 301.027 102.822C301.551 103.079 301.975 103.428 302.296 103.867C302.617 104.306 302.823 104.802 302.916 105.357C303.009 105.911 302.993 106.513 302.868 107.164C302.743 107.814 302.505 108.477 302.164 109.157C303.24 107.942 304.371 107.144 305.56 106.789C306.745 106.433 307.899 106.593 308.968 107.276C309.537 107.638 309.958 108.074 310.224 108.573C310.491 109.073 310.607 109.612 310.565 110.182C310.523 110.755 310.33 111.345 309.99 111.954C309.649 112.566 309.155 113.158 308.522 113.742C307.985 114.254 307.449 114.77 306.919 115.289C306.408 115.763 306.096 116.215 305.971 116.641C305.846 117.067 305.907 117.362 306.157 117.538C306.45 117.705 306.732 117.705 307.009 117.548C307.246 117.439 307.391 117.436 307.433 117.525C307.481 117.66 307.333 117.833 306.999 118.051C306.315 118.496 305.608 118.708 304.872 118.701C304.137 118.695 303.491 118.477 302.922 118.048C302.126 117.529 301.663 116.901 301.519 116.132C301.377 115.366 301.602 114.6 302.225 113.841C302.829 113.101 303.44 112.361 304.053 111.627C304.66 110.916 305.043 110.281 305.184 109.717C305.325 109.15 305.213 108.759 304.847 108.541C304.615 108.407 304.339 108.381 304.018 108.468C303.697 108.554 303.366 108.727 303.022 108.99C302.678 109.253 302.335 109.586 301.994 109.999C301.65 110.409 301.339 110.871 301.056 111.38C300.693 112.031 300.475 112.569 300.391 112.995C300.308 113.421 300.285 113.774 300.324 114.056C300.359 114.337 300.41 114.555 300.475 114.716C300.539 114.876 300.539 115.01 300.475 115.119C300.394 115.26 300.237 115.347 300.006 115.382C299.774 115.417 299.492 115.404 299.157 115.347C298.823 115.289 298.444 115.183 298.027 115.03C297.606 114.876 297.166 114.68 296.7 114.443C295.756 113.959 295.036 113.482 294.538 112.982C294.04 112.482 293.851 112.091 293.985 111.797C294.053 111.649 294.172 111.556 294.352 111.521C294.528 111.486 294.744 111.393 295.001 111.242C295.258 111.092 295.556 110.829 295.897 110.454C296.241 110.079 296.61 109.477 297.005 108.644C297.105 108.433 297.208 108.221 297.307 108.01C297.702 107.177 297.946 106.475 298.04 105.901C298.133 105.328 297.956 104.94 297.519 104.738C297.249 104.617 296.951 104.617 296.616 104.735C296.286 104.854 295.958 105.065 295.637 105.366C295.315 105.671 295.007 106.042 294.711 106.488C294.416 106.933 294.159 107.417 293.937 107.939C293.655 108.609 293.494 109.16 293.459 109.592C293.42 110.025 293.43 110.374 293.481 110.643C293.533 110.912 293.597 111.121 293.677 111.271C293.757 111.422 293.77 111.556 293.716 111.672C293.648 111.819 293.507 111.925 293.292 111.989C293.073 112.053 292.797 112.072 292.463 112.053C292.129 112.034 291.746 111.97 291.316 111.864C290.885 111.758 290.426 111.611 289.928 111.422C288.948 111.047 288.19 110.653 287.647 110.211C287.104 109.772 286.876 109.403 286.979 109.093C287.031 108.939 287.14 108.833 287.31 108.779C287.48 108.724 287.686 108.609 287.92 108.433C288.158 108.256 288.425 107.962 288.724 107.551C289.022 107.141 289.324 106.5 289.629 105.632C289.707 105.411 289.784 105.19 289.861 104.969L289.864 104.975Z" fill="#FF5000"/>
<path d="M239.014 53.5322C239.05 54.1153 238.857 54.6215 238.43 55.0477C238.221 55.2559 237.983 55.4065 237.717 55.5026C237.447 55.5987 237.174 55.6372 236.894 55.6116C236.162 55.6116 235.584 55.3584 235.156 54.8554C234.729 54.3524 234.517 53.6667 234.517 52.8017C234.491 52.3018 234.562 51.8244 234.726 51.3599C234.89 50.8985 235.143 50.4916 235.484 50.1391C235.824 49.7867 236.223 49.5176 236.673 49.3285C237.122 49.1395 237.595 49.053 238.08 49.0626C238.459 49.0626 238.709 49.1043 238.838 49.1908C238.966 49.2773 239.03 49.3798 239.03 49.5016C239.03 49.6361 238.976 49.7451 238.867 49.8284C238.757 49.9149 238.574 49.9565 238.317 49.9565C237.938 49.9565 237.591 50.0398 237.273 50.2032C236.955 50.3666 236.724 50.5461 236.579 50.7415C236.432 50.9369 236.396 51.1164 236.47 51.2798C236.544 51.4432 236.769 51.5265 237.148 51.5265C237.405 51.5137 237.652 51.5617 237.896 51.6642C238.141 51.7668 238.346 51.9174 238.52 52.1096C238.886 52.5005 239.05 52.9747 239.014 53.5322Z" fill="#FF5000"/>
<path d="M241.722 82.288C241.241 81.0257 241.074 79.8946 241.225 78.8886C241.376 77.8825 241.751 76.9438 242.352 76.0723C242.953 75.2008 243.721 74.3774 244.655 73.5956C245.587 72.8138 246.583 72.0257 247.637 71.2311C248.69 70.4365 249.744 69.6163 250.798 68.7768C251.851 67.9374 252.809 67.005 253.666 65.9829C254.524 64.9609 255.218 63.8523 255.745 62.6508C256.272 61.4493 256.535 60.0844 256.535 58.5529C256.535 56.842 256.204 55.5059 255.542 54.5447C254.881 53.5835 254.097 53.1029 253.194 53.1029C252.651 53.1029 252.192 53.2695 251.816 53.5995C251.44 53.9295 251.199 54.4037 251.093 55.0189C250.987 55.6341 251.071 56.371 251.341 57.2264C251.61 58.0819 252.137 59.0367 252.921 60.0876C251.896 61.2282 250.724 62.0484 249.397 62.5418C248.07 63.0385 246.824 63.2115 245.648 63.0609C244.472 62.9103 243.486 62.4521 242.689 61.6864C241.893 60.9206 241.491 59.8473 241.491 58.4664C241.491 57.3258 241.784 56.2973 242.371 55.3809C242.959 54.4646 243.772 53.67 244.81 52.994C245.847 52.3179 247.107 51.7989 248.581 51.44C250.056 51.0812 251.668 50.8986 253.413 50.8986C255.401 50.8986 257.206 51.1324 258.832 51.597C260.457 52.0616 261.848 52.7088 263.008 53.5354C264.168 54.3621 265.064 55.3521 265.697 56.5087C266.33 57.6654 266.645 58.9342 266.645 60.3151C266.645 62.1766 266.111 63.7241 265.042 64.9545C263.972 66.1848 262.626 67.2357 261 68.1072C259.375 68.9787 257.605 69.7508 255.693 70.4269C253.782 71.1029 251.967 71.8174 250.251 72.5671H260.098C261.151 72.5671 262.003 72.4934 262.648 72.3428C263.297 72.1923 263.808 72.0128 264.184 71.8014C264.56 71.5931 264.829 71.3496 264.997 71.0805C265.16 70.8113 265.289 70.571 265.382 70.3596C265.472 70.1481 265.555 69.9687 265.629 69.8181C265.703 69.6675 265.848 69.5938 266.057 69.5938C266.51 69.5938 266.808 69.9078 266.959 70.539C267.11 71.1702 267.139 71.952 267.049 72.8811C266.959 73.8135 266.757 74.8259 266.439 75.9217C266.121 77.0175 265.732 78.0331 265.263 78.9623C264.797 79.8946 264.254 80.6732 263.638 81.3044C263.021 81.9356 262.366 82.2496 261.672 82.2496L241.71 82.2944L241.722 82.288Z" fill="#FF5000"/>
<path d="M280.021 75.7999C280.021 74.6273 279.803 73.5187 279.366 72.4678C278.929 71.4169 278.306 70.4845 277.493 69.6739C276.68 68.8633 275.7 68.1808 274.557 67.6233C273.413 67.0691 272.131 66.6846 270.718 66.4731L274.92 51.472H289.238C289.96 51.472 290.442 51.6675 290.683 52.0584C290.924 52.4493 291.008 52.9299 290.93 53.5002C290.857 54.0705 290.629 54.7017 290.253 55.3905C289.877 56.0826 289.43 56.7138 288.919 57.2841C288.409 57.8544 287.843 58.335 287.227 58.7259C286.61 59.1168 286.015 59.3122 285.444 59.3122C285.354 59.3122 285.219 59.2513 285.036 59.1328C284.856 59.0142 284.525 58.8701 284.043 58.7034C283.561 58.54 282.861 58.3959 281.942 58.2741C281.023 58.1556 279.767 58.0947 278.171 58.0947H275.369L274.692 60.392C277.011 60.7828 279.125 61.382 281.036 62.1926C282.948 63.0032 284.583 63.9708 285.938 65.0986C287.294 66.2232 288.338 67.4952 289.077 68.9049C289.816 70.3179 290.182 71.8174 290.182 73.4097C290.182 74.7907 289.896 76.053 289.324 77.1937C288.752 78.3343 287.946 79.3115 286.909 80.1221C285.871 80.9327 284.628 81.5639 283.182 82.0157C281.737 82.4674 280.127 82.6917 278.351 82.6917C276.905 82.6917 275.578 82.5411 274.377 82.2399C273.172 81.9388 272.141 81.503 271.283 80.9327C270.426 80.3624 269.754 79.6864 269.272 78.9046C268.79 78.1228 268.549 77.2545 268.549 76.2933C268.549 75.063 268.896 74.1531 269.587 73.5667C270.278 72.9804 271.078 72.6664 271.98 72.6216C272.883 72.5767 273.763 72.7882 274.624 73.2528C275.482 73.7173 276.076 74.387 276.407 75.2585C275.263 76.8508 274.721 78.126 274.782 79.0872C274.843 80.0484 275.43 80.529 276.542 80.529C277.596 80.529 278.441 80.0997 279.07 79.2442C279.703 78.3887 280.018 77.2385 280.018 75.7967L280.021 75.7999Z" fill="#FF5000"/>
</g>
<defs>
<clipPath id="clip0_538_9">
<rect width="361" height="333" fill="white"/>
</clipPath>
</defs>
</svg>
